<?xml version="1.0" encoding="utf-8"?>
<!-- Generator: Adobe Illustrator 16.0.0, SVG Export Plug-In . SVG Version: 6.00 Build 0)  -->
<!DOCTYPE svg PUBLIC "-//W3C//DTD SVG 1.1//EN" "http://www.w3.org/Graphics/SVG/1.1/DTD/svg11.dtd">
<svg version="1.1" id="Слой_1" xmlns="http://www.w3.org/2000/svg" xmlns:xlink="http://www.w3.org/1999/xlink" x="0px" y="0px"
	 width="595.28px" height="841.89px" viewBox="0 0 595.28 841.89" enable-background="new 0 0 595.28 841.89" xml:space="preserve">
<g>
	<g>
		<ellipse fill="#FFFFFF" stroke="#FDFDFD" stroke-miterlimit="10" cx="298.25" cy="421" rx="429.25" ry="385"/>
		<path opacity="0.37" fill="#F4F4F4" stroke="#FFFFFF" stroke-miterlimit="10" enable-background="new    " d="M727.5,421
			c0-40.939-7.15-80.374-20.352-117.386l-149.895-79.021L541.21,337.297l-45.773,42.647l-173.654-82.761l3.873,134.87
			L12.588,457.295l530.707,279.812C654.624,667.549,727.5,551.915,727.5,421z"/>
		<path fill="#020304" stroke="#FDFDFD" stroke-miterlimit="10" d="M557.254,224.593c-7.834,30.493-22.337,58.146-41.431,81.001
			c-19.06,22.899-42.603,41.041-67.836,53.698c-25.242,12.687-52.124,19.864-77.897,21.792c-12.893,0.979-25.513,0.669-37.62-0.778
			c-3.609-0.432-7.167-0.977-10.684-1.604v-81.518l-154.598,80.055L12.588,457.295l154.599,80.055l154.598,80.057v-80.034
			c3.35-0.729,6.691-1.488,10.004-2.304c11.121-2.737,22.021-5.957,32.63-9.631c21.224-7.346,41.279-16.52,59.769-27.202
			c37.017-21.361,67.662-48.756,90.449-79.172c22.826-30.421,37.82-63.877,44.73-97.298
			C566.333,288.33,565.134,255.035,557.254,224.593z"/>
	</g>
</g>
</svg>
