<?xml version="1.0" encoding="UTF-8"?>
<svg xmlns="http://www.w3.org/2000/svg" xmlns:xlink="http://www.w3.org/1999/xlink" width="20pt" height="20pt" viewBox="0 0 20 20" version="1.1">
<g id="surface1">
<path style=" stroke:none;fill-rule:nonzero;fill:rgb(0%,0%,0%);fill-opacity:1;" d="M 6.222656 17.902344 C 3.5 16.613281 1.546875 13.964844 1.25 10.832031 L 0 10.832031 C 0.425781 15.964844 4.714844 20 9.957031 20 C 10.144531 20 10.324219 19.984375 10.507812 19.972656 L 7.332031 16.792969 Z M 10.042969 0 C 9.855469 0 9.675781 0.015625 9.492188 0.0273438 L 12.667969 3.207031 L 13.773438 2.101562 C 16.5 3.386719 18.453125 6.035156 18.75 9.167969 L 20 9.167969 C 19.574219 4.035156 15.285156 0 10.042969 0 Z M 13.332031 11.667969 L 15 11.667969 L 15 6.667969 C 15 5.746094 14.253906 5 13.332031 5 L 8.332031 5 L 8.332031 6.667969 L 13.332031 6.667969 Z M 6.667969 13.332031 L 6.667969 3.332031 L 5 3.332031 L 5 5 L 3.332031 5 L 3.332031 6.667969 L 5 6.667969 L 5 13.332031 C 5 14.253906 5.746094 15 6.667969 15 L 13.332031 15 L 13.332031 16.667969 L 15 16.667969 L 15 15 L 16.667969 15 L 16.667969 13.332031 Z M 6.667969 13.332031 "/>
</g>
</svg>
