<?xml version="1.0" encoding="UTF-8"?>
<svg xmlns="http://www.w3.org/2000/svg" xmlns:xlink="http://www.w3.org/1999/xlink" width="20pt" height="20pt" viewBox="0 0 20 20" version="1.1">
<g id="surface1">
<path style=" stroke:none;fill-rule:nonzero;fill:rgb(0%,0%,0%);fill-opacity:1;" d="M 19.832031 6.296875 L 18.226562 0.824219 C 18.191406 0.710938 18.09375 0.628906 17.972656 0.613281 C 17.855469 0.601562 17.742188 0.660156 17.683594 0.765625 L 16.773438 2.414062 C 12.847656 -0.804688 7.152344 -0.804688 3.226562 2.414062 L 2.316406 0.765625 C 2.257812 0.660156 2.144531 0.601562 2.027344 0.613281 C 1.90625 0.628906 1.808594 0.710938 1.773438 0.824219 L 0.167969 6.296875 C 0.136719 6.402344 0.164062 6.511719 0.242188 6.589844 C 0.316406 6.664062 0.429688 6.695312 0.53125 6.664062 L 6.003906 5.054688 C 6.121094 5.019531 6.203125 4.921875 6.214844 4.804688 C 6.230469 4.6875 6.167969 4.570312 6.066406 4.515625 L 4.757812 3.792969 C 7.84375 1.441406 12.15625 1.441406 15.242188 3.792969 L 13.933594 4.515625 C 13.832031 4.570312 13.769531 4.6875 13.785156 4.804688 C 13.796875 4.921875 13.878906 5.019531 13.992188 5.054688 L 19.46875 6.664062 C 19.570312 6.695312 19.683594 6.664062 19.757812 6.589844 C 19.835938 6.511719 19.863281 6.402344 19.832031 6.296875 Z M 19.832031 6.296875 "/>
<path style=" stroke:none;fill-rule:nonzero;fill:rgb(0%,0%,0%);fill-opacity:1;" d="M 7.253906 14.273438 L 1.292969 9.425781 C 1.144531 9.304688 0.941406 9.28125 0.769531 9.363281 C 0.597656 9.441406 0.488281 9.617188 0.488281 9.804688 L 0.488281 19.507812 C 0.488281 19.699219 0.597656 19.871094 0.769531 19.953125 C 0.941406 20.035156 1.144531 20.007812 1.292969 19.890625 L 7.253906 15.039062 C 7.371094 14.945312 7.4375 14.804688 7.4375 14.65625 C 7.4375 14.507812 7.371094 14.367188 7.253906 14.273438 Z M 7.253906 14.273438 "/>
<path style=" stroke:none;fill-rule:nonzero;fill:rgb(0%,0%,0%);fill-opacity:1;" d="M 10 7.007812 C 9.628906 7.007812 9.324219 7.3125 9.324219 7.683594 L 9.324219 18.390625 C 9.324219 18.765625 9.628906 19.066406 10 19.066406 C 10.371094 19.066406 10.675781 18.765625 10.675781 18.390625 L 10.675781 7.683594 C 10.675781 7.3125 10.371094 7.007812 10 7.007812 Z M 10 7.007812 "/>
<path style=" stroke:none;fill-rule:nonzero;fill:rgb(0%,0%,0%);fill-opacity:1;" d="M 19.230469 9.363281 C 19.058594 9.28125 18.855469 9.304688 18.707031 9.425781 L 12.746094 14.273438 C 12.628906 14.367188 12.5625 14.507812 12.5625 14.65625 C 12.5625 14.804688 12.628906 14.945312 12.746094 15.039062 L 18.707031 19.890625 C 18.855469 20.007812 19.058594 20.035156 19.230469 19.953125 C 19.402344 19.871094 19.511719 19.699219 19.511719 19.507812 L 19.511719 9.804688 C 19.511719 9.617188 19.402344 9.441406 19.230469 9.363281 Z M 19.230469 9.363281 "/>
</g>
</svg>
