<?xml version="1.0" encoding="UTF-8"?>
<svg xmlns="http://www.w3.org/2000/svg" xmlns:xlink="http://www.w3.org/1999/xlink" width="20pt" height="20pt" viewBox="0 0 20 20" version="1.1">
<g id="surface1">
<path style=" stroke:none;fill-rule:nonzero;fill:rgb(0%,0%,0%);fill-opacity:1;" d="M 7.109375 2.003906 C 7.023438 2.007812 6.941406 2.03125 6.871094 2.066406 C 6.585938 2.210938 6.460938 2.492188 6.410156 2.746094 C 6.355469 3.019531 6.421875 3.3125 6.429688 3.707031 C 6.433594 4.097656 6.398438 4.550781 6.21875 4.980469 L 6.257812 4.996094 C 6.039062 5.152344 5.777344 5.320312 5.421875 5.519531 C 4.039062 6.285156 3.179688 7.621094 2.664062 8.867188 C 2.144531 10.117188 1.960938 11.265625 1.960938 11.789062 C 1.960938 12.839844 1.9375 14.734375 3.789062 16.894531 C 4.929688 18.226562 6.824219 18.476562 8.5625 18.335938 C 10.296875 18.195312 11.886719 17.671875 12.574219 17.308594 C 14.914062 16.066406 16.304688 14.445312 17.046875 12.984375 C 17.335938 12.425781 17.523438 11.890625 17.636719 11.40625 C 17.636719 11.398438 17.640625 11.390625 17.640625 11.382812 C 17.640625 11.382812 17.664062 11.292969 17.683594 11.15625 C 17.695312 11.097656 17.710938 11.035156 17.71875 10.980469 C 17.804688 10.394531 17.78125 9.917969 17.632812 9.570312 C 17.039062 8.171875 17.300781 7.308594 17.300781 6.488281 C 17.300781 6.046875 17.097656 5.378906 16.871094 4.722656 C 16.648438 4.066406 16.414062 3.480469 16.257812 3.222656 C 16.128906 3.003906 15.941406 2.742188 15.675781 2.582031 C 15.539062 2.5 15.371094 2.445312 15.191406 2.480469 C 15.011719 2.515625 14.851562 2.636719 14.726562 2.8125 C 14.554688 3.050781 14.117188 3.492188 13.734375 3.859375 C 13.402344 4.171875 13.183594 4.363281 13.109375 4.429688 C 12.898438 4.355469 11.878906 4.023438 10.585938 4.214844 C 10.53125 4.191406 10.476562 4.175781 10.421875 4.15625 L 10.429688 4.136719 C 10.429688 4.136719 8.9375 3.527344 7.875 2.382812 C 7.707031 2.207031 7.542969 2.089844 7.371094 2.035156 C 7.285156 2.007812 7.195312 1.996094 7.109375 2.003906 Z M 7.144531 2.5 C 7.164062 2.496094 7.183594 2.5 7.21875 2.511719 C 7.28125 2.53125 7.378906 2.589844 7.507812 2.726562 C 7.964844 3.21875 8.488281 3.609375 8.953125 3.910156 C 8.539062 3.90625 8.140625 3.957031 7.777344 4.066406 C 7.390625 4.183594 7.128906 4.351562 6.859375 4.554688 C 6.914062 4.246094 6.933594 3.953125 6.929688 3.695312 C 6.921875 3.269531 6.890625 2.898438 6.902344 2.84375 C 6.929688 2.699219 7.027344 2.546875 7.097656 2.515625 C 7.113281 2.503906 7.128906 2.5 7.144531 2.5 Z M 15.285156 2.972656 C 15.316406 2.96875 15.355469 2.972656 15.417969 3.011719 C 15.546875 3.085938 15.722656 3.300781 15.828125 3.480469 C 15.914062 3.617188 16.179688 4.25 16.398438 4.886719 C 16.617188 5.523438 16.800781 6.226562 16.800781 6.488281 C 16.800781 7.121094 16.578125 8.039062 17.007812 9.328125 C 16.648438 9.085938 16.207031 8.945312 15.710938 8.972656 C 15.113281 9.003906 14.445312 9.265625 13.71875 9.824219 C 13.511719 9.980469 13.332031 10.117188 13.167969 10.230469 C 13.148438 10.246094 13.128906 10.265625 13.113281 10.289062 C 13.066406 10.351562 13.050781 10.433594 13.074219 10.507812 C 13.09375 10.582031 13.152344 10.644531 13.226562 10.671875 C 13.253906 10.683594 13.28125 10.6875 13.3125 10.6875 C 13.363281 10.6875 13.414062 10.671875 13.457031 10.640625 C 13.632812 10.519531 13.816406 10.378906 14.023438 10.21875 C 14.660156 9.730469 15.210938 9.519531 15.664062 9.476562 L 15.789062 9.609375 L 15.875 9.625 L 16.074219 9.523438 L 16.082031 9.488281 C 16.394531 9.535156 16.660156 9.667969 16.886719 9.859375 C 17.128906 10.0625 17.207031 10.394531 17.214844 10.703125 C 17.21875 10.84375 17.207031 10.972656 17.191406 11.070312 C 17.101562 11.5625 16.917969 12.140625 16.601562 12.757812 C 15.90625 14.128906 14.59375 15.671875 12.339844 16.867188 C 11.769531 17.167969 10.179688 17.703125 8.519531 17.839844 C 6.863281 17.972656 5.148438 17.714844 4.167969 16.570312 C 2.410156 14.519531 2.460938 12.855469 2.460938 11.789062 C 2.460938 11.460938 2.582031 10.613281 2.902344 9.660156 L 2.914062 9.671875 L 3 9.6875 L 3.199219 9.585938 L 3.238281 9.367188 L 3.085938 9.203125 L 3.070312 9.199219 C 3.089844 9.152344 3.105469 9.109375 3.125 9.0625 C 3.617188 7.878906 4.421875 6.648438 5.664062 5.957031 C 6.359375 5.570312 6.757812 5.257812 7.0625 5.027344 C 7.363281 4.792969 7.558594 4.65625 7.921875 4.546875 C 8.652344 4.328125 9.640625 4.359375 10.460938 4.695312 L 10.523438 4.722656 L 10.59375 4.710938 C 11.90625 4.496094 13.089844 4.9375 13.09375 4.9375 L 13.234375 4.992188 L 13.34375 4.890625 C 13.34375 4.890625 13.6875 4.589844 14.078125 4.21875 C 14.234375 4.074219 14.390625 3.917969 14.542969 3.761719 C 14.597656 4.792969 14.335938 5.714844 14.335938 5.710938 L 14.308594 5.808594 L 14.351562 5.894531 C 14.351562 5.894531 14.726562 6.667969 15.523438 7.066406 C 15.648438 7.128906 15.796875 7.078125 15.859375 6.953125 C 15.921875 6.832031 15.871094 6.679688 15.75 6.617188 C 15.183594 6.335938 14.890625 5.824219 14.839844 5.730469 C 14.886719 5.5625 15.171875 4.492188 15 3.273438 C 15 3.273438 15 3.269531 15 3.269531 C 15.046875 3.210938 15.097656 3.152344 15.132812 3.101562 C 15.207031 3 15.257812 2.980469 15.285156 2.972656 Z M 5.570312 7.902344 C 5.125 7.902344 4.683594 8.5625 4.683594 8.5625 C 4.683594 8.5625 4.683594 9.558594 5.347656 9.558594 C 6.011719 9.558594 6.453125 8.453125 6.453125 8.453125 C 6.453125 8.453125 6.011719 7.902344 5.570312 7.902344 Z M 5.566406 8.171875 C 5.621094 8.171875 5.671875 8.1875 5.722656 8.203125 C 5.425781 8.292969 5.207031 8.566406 5.207031 8.894531 C 5.207031 9.039062 5.25 9.175781 5.324219 9.289062 C 4.964844 9.203125 4.964844 8.621094 4.964844 8.625 C 4.964844 8.625 5.265625 8.171875 5.566406 8.171875 Z M 9.929688 8.253906 C 8.964844 8.253906 8.925781 9.195312 8.925781 9.195312 C 8.925781 9.195312 9.34375 10.109375 10.125 10.015625 C 10.910156 9.921875 11.398438 9.089844 11.398438 9.089844 C 11.398438 9.089844 11.398438 8.996094 11.007812 8.625 C 10.613281 8.253906 10.21875 8.253906 9.929688 8.253906 Z M 9.746094 8.535156 C 9.800781 8.535156 9.867188 8.535156 9.941406 8.550781 C 9.644531 8.78125 9.507812 8.976562 9.457031 9.480469 C 9.324219 9.308594 9.234375 9.210938 9.234375 9.210938 C 9.234375 9.210938 9.375 8.535156 9.746094 8.535156 Z M 3.796875 9.75 L 3.597656 9.851562 L 3.558594 10.070312 L 3.710938 10.234375 L 3.796875 10.25 L 3.996094 10.152344 L 4.039062 9.929688 L 3.882812 9.765625 Z M 16.238281 9.976562 L 16.039062 10.078125 L 16 10.296875 L 16.152344 10.460938 L 16.238281 10.476562 L 16.441406 10.375 L 16.480469 10.15625 L 16.328125 9.992188 Z M 4.640625 10.394531 C 4.546875 10.394531 4.46875 10.398438 4.410156 10.398438 C 4.121094 10.414062 3.769531 10.582031 3.679688 11.132812 C 3.585938 11.683594 4.136719 12.507812 4.59375 12.507812 C 4.59375 12.507812 4.742188 12.550781 5.109375 12.460938 C 5.476562 12.367188 6.152344 11.867188 6.425781 11.132812 C 6.433594 11.113281 6.433594 11.097656 6.4375 11.082031 L 6.457031 11.085938 L 6.65625 10.984375 L 6.699219 10.765625 L 6.542969 10.601562 L 6.457031 10.585938 L 6.257812 10.6875 C 5.894531 10.441406 5.097656 10.394531 4.640625 10.394531 Z M 12.433594 10.65625 L 12.234375 10.753906 L 12.195312 10.976562 L 12.347656 11.140625 L 12.433594 11.15625 L 12.632812 11.054688 L 12.671875 10.832031 L 12.519531 10.671875 Z M 7.453125 10.660156 L 7.253906 10.757812 L 7.214844 10.980469 L 7.367188 11.144531 L 7.453125 11.160156 L 7.65625 11.058594 L 7.695312 10.835938 L 7.542969 10.675781 Z M 8.453125 10.722656 L 8.253906 10.824219 L 8.214844 11.046875 L 8.367188 11.207031 L 8.453125 11.222656 L 8.652344 11.125 L 8.691406 10.902344 L 8.539062 10.738281 Z M 9.453125 10.78125 L 9.25 10.882812 L 9.210938 11.101562 L 9.363281 11.265625 L 9.453125 11.28125 L 9.652344 11.179688 L 9.691406 10.960938 L 9.539062 10.796875 Z M 10.449219 10.820312 L 10.25 10.921875 L 10.210938 11.140625 L 10.363281 11.304688 L 10.449219 11.320312 L 10.652344 11.222656 L 10.691406 11 L 10.539062 10.835938 Z M 11.449219 10.820312 L 11.25 10.921875 L 11.210938 11.140625 L 11.363281 11.304688 L 11.449219 11.320312 L 11.652344 11.222656 L 11.691406 11 L 11.539062 10.835938 Z M 16.136719 10.96875 L 15.9375 11.066406 L 15.898438 11.289062 L 16.050781 11.453125 L 16.136719 11.46875 L 16.335938 11.367188 L 16.378906 11.148438 L 16.222656 10.984375 Z M 15.8125 11.910156 L 15.609375 12.011719 L 15.570312 12.230469 L 15.722656 12.394531 L 15.8125 12.410156 L 16.011719 12.3125 L 16.050781 12.089844 L 15.898438 11.925781 Z M 15.335938 12.789062 L 15.136719 12.890625 L 15.09375 13.109375 L 15.25 13.273438 L 15.335938 13.289062 L 15.535156 13.1875 L 15.574219 12.96875 L 15.421875 12.804688 Z M 4.816406 12.863281 C 4.265625 12.835938 3.824219 13.398438 3.824219 13.398438 C 3.824219 13.398438 4.492188 13.824219 5.171875 13.980469 C 7.945312 14.621094 8.859375 13.421875 8.859375 13.421875 C 8.859375 13.421875 7.710938 13.785156 6.453125 13.636719 C 5.699219 13.546875 5.257812 12.886719 4.816406 12.863281 Z M 14.742188 13.59375 L 14.542969 13.695312 L 14.503906 13.914062 L 14.65625 14.078125 L 14.742188 14.09375 L 14.945312 13.992188 L 14.984375 13.773438 L 14.828125 13.609375 Z M 14.050781 14.3125 L 13.851562 14.414062 L 13.808594 14.632812 L 13.960938 14.796875 L 14.050781 14.8125 L 14.25 14.710938 L 14.289062 14.492188 L 14.136719 14.328125 Z M 4.9375 14.648438 C 4.832031 14.648438 4.742188 14.710938 4.703125 14.804688 C 4.667969 14.898438 4.691406 15.007812 4.761719 15.078125 C 5.082031 15.394531 5.648438 15.65625 6.296875 15.65625 C 6.386719 15.65625 6.46875 15.609375 6.515625 15.53125 C 6.558594 15.453125 6.558594 15.355469 6.515625 15.277344 C 6.46875 15.199219 6.386719 15.152344 6.296875 15.15625 C 5.796875 15.15625 5.304688 14.910156 5.117188 14.722656 C 5.066406 14.675781 5.003906 14.648438 4.9375 14.648438 Z M 13.277344 14.949219 L 13.078125 15.046875 L 13.039062 15.269531 L 13.191406 15.433594 L 13.277344 15.449219 L 13.476562 15.347656 L 13.515625 15.125 L 13.363281 14.964844 Z M 12.441406 15.496094 L 12.242188 15.597656 L 12.203125 15.816406 L 12.355469 15.980469 L 12.441406 15.996094 L 12.640625 15.894531 L 12.679688 15.675781 L 12.527344 15.511719 Z M 11.554688 15.953125 L 11.351562 16.054688 L 11.3125 16.273438 L 11.464844 16.4375 L 11.554688 16.453125 L 11.753906 16.351562 L 11.792969 16.132812 L 11.640625 15.96875 Z M 10.621094 16.3125 L 10.417969 16.414062 L 10.378906 16.632812 L 10.53125 16.796875 L 10.621094 16.8125 L 10.820312 16.710938 L 10.859375 16.492188 L 10.707031 16.328125 Z M 9.664062 16.601562 L 9.464844 16.703125 L 9.421875 16.925781 L 9.578125 17.085938 L 9.664062 17.101562 L 9.863281 17.003906 L 9.902344 16.78125 L 9.75 16.617188 Z M 5.730469 16.667969 L 5.53125 16.769531 L 5.488281 16.988281 L 5.640625 17.152344 L 5.730469 17.167969 L 5.929688 17.070312 L 5.96875 16.847656 L 5.816406 16.683594 Z M 8.6875 16.816406 L 8.488281 16.917969 L 8.445312 17.140625 L 8.601562 17.300781 L 8.6875 17.316406 L 8.886719 17.21875 L 8.925781 16.996094 L 8.773438 16.832031 Z M 6.695312 16.90625 L 6.496094 17.007812 L 6.457031 17.226562 L 6.609375 17.390625 L 6.695312 17.40625 L 6.898438 17.304688 L 6.9375 17.085938 L 6.78125 16.921875 Z M 7.695312 16.933594 L 7.492188 17.035156 L 7.453125 17.253906 L 7.609375 17.417969 L 7.695312 17.433594 L 7.894531 17.332031 L 7.933594 17.113281 L 7.78125 16.949219 Z M 7.695312 16.933594 "/>
</g>
</svg>
